<?xml version="1.0" encoding="UTF-8"?>
<svg id="Layer_1" data-name="Layer 1" xmlns="http://www.w3.org/2000/svg" viewBox="0 0 2694.91 2407.98">
  <defs>
    <style>
      .cls-1 {
        fill: #eb984e;
      }

      .cls-2 {
        fill: #fff;
      }

      .cls-3 {
        fill: #f6c547;
      }

      .cls-4 {
        opacity: .65;
      }

      .cls-5 {
        fill: #651b47;
      }

      .cls-6 {
        fill: #ee1822;
      }

      .cls-7 {
        opacity: .3;
      }

      .cls-8 {
        fill: #6c184e;
      }

      .cls-9 {
        fill: #661a47;
      }

      .cls-10 {
        fill: #ffce00;
      }

      .cls-11 {
        fill: #48c75a;
      }

      .cls-12 {
        fill: #f7af41;
      }

      .cls-13 {
        fill: #bd1622;
      }

      .cls-14 {
        fill: #6d184e;
      }
    </style>
  </defs>
  <g>
    <path class="cls-12" d="m87.37,2083.09s-54.05,171.83,348.38-74.4c402.43-246.23,1406.89-434.41,1882.07-374.33,475.18,60.09,139.71-1069.41-212.94-1250.74C1752.22,202.29,649.18,985.27,87.37,2083.09Z"/>
    <g class="cls-7">
      <path class="cls-8" d="m119.33,2045.07s-86,209.85,316.42-36.38c402.43-246.23,1406.89-434.41,1882.07-374.33,475.18,60.09,139.71-1069.41-212.94-1250.74C1752.22,202.29,681.14,947.25,119.33,2045.07Z"/>
    </g>
    <path class="cls-8" d="m156.75,2146.49c-21.14,0-37.86-5.04-50.27-15.07-37.92-30.67-17.42-90.5-16.53-93.03.28-.79.6-1.55.98-2.29,258.22-504.59,591.39-873.95,825.41-1094.96,296.56-280.07,609.49-486.68,858.56-566.86,143.75-46.27,257.6-48.66,338.42-7.11,128.07,65.85,261.69,254.15,357.45,503.69,93.83,244.52,124.64,485.11,80.42,627.89-31.88,102.92-99.93,156.41-197.91,156.42-12.15,0-24.73-.82-37.79-2.48-488.92-61.82-1485.13,136.22-1870.1,371.76-133.4,81.62-228.76,122.03-288.65,122.03Zm-32.26-94.79c-3.42,10.78-8.83,39.66,5.3,51.02,11.86,9.52,68.25,29.75,296.31-109.79,190.74-116.7,526.02-227.66,919.86-304.4,381.31-74.31,745.48-101.43,974.17-72.49,99.61,12.54,165.49-30.54,195.74-128.21,41.88-135.23,11.37-366.56-79.62-603.7-91.21-237.69-221.42-423.16-339.84-484.05-70.75-36.37-178.01-33.12-310.18,9.42-244,78.54-551.81,282.12-844.5,558.54-231.71,218.83-561.5,584.42-817.24,1083.67Z"/>
    <g>
      <path class="cls-10" d="m2129.8,599.97c-55.85-12.84,5.56-33.82-68.48-107.64-74.04-73.83-155.41-13.14-155.41-13.14,13.21-27.05,16.22-52.19,2.03-72.07-63.71-89.25-230.99-33.39-292.2-105-61.21-71.61-207.38-5.95-207.38-5.95,0,0-872.85,520.99-1122.73,1121.1-249.88,600.11-230.79,784.31-122.19,742.77,108.6-41.54,188.65-135.17,268.18-61.41,79.53,73.77-19.78,212.06,76.39,280.21,53.86,38.17,178.55-30.35,118.63-132.6-59.92-102.25-139.27-291.77-4.86-393.44,134.4-101.67,442.99-155.77,424.76-12.98-45.17,353.89,331.33,203.81,214.4,54.26-99.31-127-7.95-349.97,213.48-227.2,185.85,103.04,162.23-37.26,345.57-97.5,136.76-44.93,388.41-46.4,388.41-46.4,176.61-103.72,16.95-154.92,16.95-154.92,0,0,147.98-113.94,110.87-192.66-37.11-78.72-19.11-202.74-15.84-328.29,3.28-125.55-134.72-234.3-190.57-247.14Z"/>
      <g class="cls-7">
        <path class="cls-8" d="m2129.8,599.97c-55.85-12.84,5.56-33.82-68.48-107.64-74.04-73.83-155.41-13.14-155.41-13.14,13.21-27.05,16.22-52.19,2.03-72.07-63.71-89.25-230.99-33.39-292.2-105-61.21-71.61-207.38-5.95-207.38-5.95,0,0-20.3,12.12-55.55,34.76,273.08,71.76,836.7,301.83,732.94,1120.85,0,0-1090.05,78.22-1389.72,264.46-215.53,133.95-432.14,385.73-600.18,418.04,12.03,30.78,36.02,37.85,67.6,25.76,108.6-41.54,188.65-135.17,268.18-61.41,79.53,73.77-19.78,212.06,76.39,280.21,53.86,38.17,178.55-30.35,118.63-132.6-59.92-102.25-139.27-291.77-4.86-393.44,134.4-101.67,442.99-155.77,424.76-12.98-45.17,353.89,331.33,203.81,214.4,54.26-99.31-127-7.95-349.97,213.48-227.2,185.85,103.04,162.23-37.26,345.57-97.5,136.76-44.93,388.41-46.4,388.41-46.4,176.61-103.72,16.95-154.92,16.95-154.92,0,0,147.98-113.94,110.87-192.66-37.11-78.72-19.11-202.74-15.84-328.29,3.28-125.55-134.72-234.3-190.57-247.14Z"/>
      </g>
      <g class="cls-4">
        <path class="cls-2" d="m2177.52,628.04c4.85,1.12,10.36,3,16.3,5.51-15.36-11.22-30.12-20.03-43.02-25.98,1.25,9.59,5.6,15.62,26.71,20.47Z"/>
        <path class="cls-2" d="m2274.53,1396.64c-.32-.31-.63-.62-.95-.92-.34.26-.53.41-.53.41,0,0,.54.17,1.48.51Z"/>
        <path class="cls-2" d="m1953.63,507.26s47.72-35.52,103.32-19.04c-32.25-29.78-65.52-35-92.61-31.51,2.34,15.34-1.9,32.52-10.71,50.55Z"/>
        <path class="cls-2" d="m1895.28,392.48c-55.23-53.2-159.07-37.59-229.49-59.84,47.78,51.41,153.65,33.17,229.49,59.84Z"/>
        <path class="cls-2" d="m1408.36,296.17s-388.47,231.89-721.29,564.44c-6.48,4.86-12.75,10.38-18.6,16.7-3.69,3.99-7,8.14-10.09,12.36-154.76,159-294.39,339.41-372.75,527.6-234.65,563.55-232.11,760.31-141,747.79-31.42-72.51,9.36-288.97,188.71-719.71,67.46-162.02,180.34-318.26,309.18-460.05,2.66,4.85,5.95,9.29,10.08,13.11,28.62,26.48,82.12,15.19,119.5-25.21,37.38-40.4,44.48-94.62,15.86-121.1-2.79-2.58-5.89-4.7-9.12-6.58,322.07-309.28,654.67-546.22,654.67-546.22,0,0,112.92-15.62,181.31,1.85-61.72-69.97-206.47-4.98-206.47-4.98Z"/>
      </g>
      <path class="cls-8" d="m545.15,2407.98c-17.7,0-34.44-4.57-47.83-14.05-58.57-41.51-54.98-105.05-51.81-161.12,2.65-46.95,5.16-91.3-26.46-120.62-44.41-41.19-87.05-20.35-158.59,20.04-28.34,16-57.64,32.54-90.41,45.07-39.33,15.04-62.79,2.52-75.56-10.62-81.52-83.94,49.67-457.73,174.08-756.52,130.54-313.51,431.17-604.16,660.39-792.76,247.66-203.79,467.74-335.8,469.93-337.11.61-.37,1.25-.7,1.9-.99,6.48-2.91,159.6-70.41,229.01,10.8,24.01,28.08,72.03,33.11,122.88,38.44,61.75,6.46,131.74,13.8,170.32,67.83,9.9,13.87,14.09,29.81,12.57,47.67,38.75-12.28,91.69-11.81,138.83,35.19,44.35,44.22,45.77,73.98,46.61,91.76.11,2.29.25,5.29.52,6.81,1.15.7,4.43,2.3,12.43,4.15h0c64.32,14.79,208.44,130.47,204.91,265.64-.73,27.74-2.17,55.47-3.56,82.3-4.82,92.75-9.37,180.36,17.63,237.63,33.54,71.16-49.27,157.1-92.95,195.76,21.12,11.78,46.32,31.97,49.68,62.27,4.16,37.53-25.9,74.62-91.9,113.38-2.81,1.65-6,2.52-9.25,2.54-2.49.01-250.36,1.98-382.75,45.48-65.94,21.67-102.95,53.61-135.59,81.79-60.74,52.44-104.1,81.19-224.71,14.32-82.65-45.81-153.73-44.36-195.02,4-43.29,50.71-41.06,136.65,5.07,195.65,33.81,43.23,35.32,93.75,4.06,135.12-37.97,50.24-111.7,71.66-167.87,48.78-40.02-16.31-104.08-67.77-83.49-229.12,2.98-23.37-4.49-39.39-23.54-50.42-70.21-40.67-268.24,2.2-371.73,80.49-129.31,97.82-36.32,290.88,9.66,369.35,29.52,50.37,23.48,102.14-16.15,138.48-23.21,21.28-53.44,32.6-81.29,32.6Zm-177.3-355.15c25.64,0,51.17,8.9,76.35,32.25,44.37,41.16,41.11,98.89,38.23,149.82-3.01,53.22-5.6,99.18,36.28,128.86,20.08,14.22,57.98,7.08,82.75-15.63,15.42-14.14,37.11-44.96,9.23-92.54-50.98-86.99-153.04-301.82-.07-417.53,106.26-80.38,321.82-135.57,412.58-82.99,32.16,18.63,46.58,48.75,41.68,87.1-12.94,101.41,8.64,168.95,60.77,190.2,40.71,16.59,96.52.08,124.41-36.83,12.25-16.21,28.06-49.47-3.68-90.06-56.57-72.35-58.36-178.84-4.06-242.44,52.97-62.05,143.08-66.65,241.07-12.33,104.16,57.76,130.38,35.12,182.62-9.97,33.52-28.94,75.24-64.95,148.21-88.92,128.81-42.32,351.64-46.82,389.03-47.28,63.43-38.13,70.95-63.21,69.68-74.89-2.46-22.59-40.22-39.77-53.25-44-6.52-2.12-11.35-7.68-12.51-14.44-1.17-6.75,1.48-13.61,6.91-17.8,35.32-27.24,130.49-116.98,105.43-170.14-30.96-65.67-26.18-157.79-21.11-255.31,1.38-26.59,2.81-54.09,3.52-81.35,2.93-112.48-123.99-216.63-176.23-228.64-33.53-7.71-40.49-21.84-41.6-45.23-.67-14.02-1.58-33.23-35.79-67.34-61.51-61.32-128.54-13.43-131.36-11.37-6.85,5.03-16.29,4.76-22.82-.7-6.52-5.45-8.52-14.63-4.79-22.27,16.89-34.59,6.88-48.61,3.59-53.22-28.9-40.48-84.84-46.34-144.07-52.54-55.82-5.84-113.54-11.89-147.13-51.19-42.47-49.67-146.78-18.34-184.77-1.53-15.72,9.48-227.46,138.28-464.9,333.72-225.81,185.86-521.76,471.72-649.32,778.07-91.45,219.64-151.97,395.65-179.87,523.14-31.48,143.85-11.76,183.17-1.83,193.41,2.73,2.8,11.02,11.33,35.83,1.85,30.2-11.55,58.28-27.41,85.44-42.74,41.36-23.35,83.61-47.2,125.57-47.2Z"/>
    </g>
    <path class="cls-8" d="m1540.06,1510.6c105.59-19.05,211.6-36.18,318.19-49.96,53.3-6.87,106.75-12.88,160.4-17.57,53.65-4.67,107.51-8.06,161.66-9.09,8.94-.17,16.32,6.93,16.49,15.87.17,8.94-6.94,16.32-15.87,16.49-.25,0-.51,0-.76,0h-.1c-53.12-1.66-106.52-1-159.92.95-53.41,1.97-106.84,5.27-160.24,9.44-106.8,8.38-213.44,20.15-319.86,33.87Z"/>
  </g>
  <g class="cls-7">
    <path class="cls-8" d="m1881.01,383.05s.55-.4,1.49-1.04c-.25-.18-.5-.37-.75-.54-.25.53-.48,1.05-.74,1.59Z"/>
    <path class="cls-8" d="m2295.46,750.97c-3.28,125.55-21.27,249.58,15.84,328.29,1.99,4.23,3.42,8.57,4.4,12.98-7-71.14,2.39-157.77,4.67-245.15.9-34.67-8.99-68.04-24.93-98.48,0,.79.04,1.56.02,2.35Z"/>
    <path class="cls-8" d="m2317.25,1105.69c1.04,75.48-116.82,166.24-116.82,166.24,0,0,61.73,19.81,65.95,59.73,40.69-40.05,93.77-105.48,69.83-156.26-9.63-20.43-15.53-43.94-18.96-69.71Z"/>
  </g>
  <g>
    <ellipse class="cls-6" cx="1526.78" cy="668.21" rx="269" ry="214.68" transform="translate(-118.15 936.12) rotate(-32.89)"/>
    <g class="cls-4">
      <path class="cls-2" d="m1566,880.02c-131.94,34.19-247.72-32.06-258.6-147.96-10.88-115.9,87.25-237.57,219.18-271.76,97.03-25.14,185.26,4.08,229.51,67.37-44.21-74.38-142.07-110.03-250.22-82.01-139.91,36.25-243.97,165.28-232.43,288.19,11.54,122.91,134.32,193.15,274.23,156.9,36.93-9.57,71.32-25.65,101.79-46.33-25.52,15.61-53.61,27.86-83.46,35.6Z"/>
    </g>
    <path class="cls-13" d="m1547.8,496.17l30.55,325.26c85.42-37.37,144.65-121.49,137.08-202.1-7.57-80.62-79.41-130.78-167.62-123.15Z"/>
    <path class="cls-13" d="m1471.34,516.72c-83.33,38.19-140.67,120.97-133.21,200.37,7.46,79.39,77.25,129.24,163.63,123.45l-30.41-323.82Z"/>
    <path class="cls-13" d="m1471.34,516.72c-83.33,38.19-140.67,120.97-133.21,200.37,7.46,79.39,77.25,129.24,163.63,123.45l-30.41-323.82Z"/>
    <path class="cls-6" d="m1483.05,625.2c-27.3,12.51-46.09,39.64-43.65,65.65,2.44,26.01,25.31,42.34,53.61,40.45l-9.96-106.1Z"/>
    <path class="cls-6" d="m1556.59,606.14c28.3-1.9,51.17,14.44,53.61,40.45,2.44,26.01-16.34,53.14-43.65,65.65l-9.96-106.1Z"/>
    <path class="cls-8" d="m1475.13,915.94c-50.94,0-98.45-13.78-136.51-40.49-46.69-32.76-75.39-82.52-80.8-140.13-12.21-130.05,97.3-266.8,244.12-304.84,78.68-20.4,156.31-9.28,212.99,30.49,46.69,32.76,75.39,82.52,80.8,140.13,12.21,130.05-97.3,266.81-244.12,304.85-25.84,6.7-51.57,10-76.48,10Zm103.36-464.09c-22.29,0-45.39,2.97-68.68,9-132.55,34.35-231.57,156.16-220.74,271.52,4.54,48.3,28.53,89.98,67.57,117.37,49.14,34.48,117.33,43.87,187.1,25.81,132.55-34.35,231.57-156.16,220.74-271.53-4.54-48.3-28.54-89.98-67.58-117.37-32.74-22.97-73.94-34.81-118.42-34.81Z"/>
    <g>
      <path class="cls-3" d="m1442.28,769.55c1.81,4.68,3.07,9.24,4.1,13.75,1.14,4.53,1.85,8.97,1.53,13.18-.48,6.23-5.92,10.9-12.15,10.42-6.23-.47-10.9-5.91-10.42-12.14.08-1.04.32-2.09.66-3.03,1.45-3.97,3.95-7.71,6.86-11.36,2.8-3.68,5.83-7.3,9.43-10.81Z"/>
      <path class="cls-3" d="m1406.36,736.76c-.71,4.99-1.85,9.6-3.16,14.05-1.23,4.53-2.79,8.77-5.13,12.31-3.46,5.2-10.48,6.63-15.69,3.17-5.21-3.46-6.63-10.48-3.17-15.68.58-.87,1.29-1.66,2.04-2.31,3.22-2.77,7.23-4.84,11.57-6.64,4.25-1.86,8.68-3.56,13.54-4.89Z"/>
      <path class="cls-3" d="m1396.79,684.38c-2.91,3.76-5.98,6.98-9.12,9.97-3.11,3.1-6.34,5.78-9.88,7.45-5.66,2.67-12.41.25-15.09-5.42-2.67-5.66-.25-12.42,5.41-15.09,1.03-.48,2.14-.81,3.21-.97,3.87-.56,8.05-.1,12.35.77,4.27.76,8.6,1.75,13.11,3.28Z"/>
      <path class="cls-3" d="m1416.91,630.77c-4.34,1.25-8.48,1.98-12.52,2.48-4.09.61-8.01.81-11.55.03-6.12-1.35-9.99-7.42-8.64-13.54,1.35-6.12,7.41-9.99,13.54-8.64,1.21.27,2.37.74,3.37,1.34,3.11,1.86,5.83,4.7,8.38,7.94,2.6,3.14,5.11,6.5,7.41,10.39Z"/>
      <path class="cls-3" d="m1459.69,594.75c-4.21-1.97-7.92-4.22-11.42-6.58-3.6-2.3-6.82-4.82-9.1-7.83-3.78-4.99-2.81-12.11,2.19-15.89s12.11-2.8,15.89,2.19c.71.94,1.27,2,1.65,3.06,1.27,3.56,1.6,7.63,1.56,11.91.05,4.22-.1,8.55-.76,13.15Z"/>
    </g>
    <g>
      <path class="cls-3" d="m1625.46,721.62c4.1,2.37,7.68,4.97,11.04,7.67,3.46,2.66,6.54,5.49,8.64,8.75,3.39,5.26,1.87,12.28-3.4,15.67-5.26,3.39-12.28,1.87-15.67-3.39-.62-.96-1.09-2.04-1.39-3.08-1.05-3.75-1.13-7.92-.81-12.27.21-4.31.64-8.71,1.58-13.35Z"/>
      <path class="cls-3" d="m1652.95,671.86c4.45-.82,8.63-1.12,12.7-1.21,4.12-.2,8.05,0,11.49,1.13,5.96,1.96,9.2,8.38,7.24,14.34-1.96,5.96-8.38,9.2-14.34,7.24-1.17-.39-2.28-.98-3.22-1.67-2.91-2.16-5.32-5.26-7.54-8.74-2.27-3.38-4.43-6.98-6.33-11.08Z"/>
      <path class="cls-3" d="m1652.31,616.44c3.07-3.5,6.26-6.43,9.5-9.14,3.22-2.81,6.53-5.21,10.06-6.56,5.85-2.25,12.41.68,14.66,6.53,2.25,5.84-.68,12.41-6.52,14.65-1.1.42-2.28.66-3.39.73-3.78.22-7.78-.59-11.87-1.82-4.07-1.12-8.19-2.48-12.43-4.39Z"/>
      <path class="cls-3" d="m1623.75,574.81c.87-4.88,2.15-9.35,3.6-13.66,1.37-4.39,3.05-8.48,5.49-11.83,3.68-5.05,10.76-6.17,15.82-2.49,5.05,3.68,6.17,10.76,2.49,15.82-.63.86-1.4,1.65-2.2,2.27-3.27,2.55-7.3,4.36-11.65,5.86-4.26,1.59-8.69,3.01-13.54,4.03Z"/>
      <path class="cls-3" d="m1577.31,561.59c-1.63-4.77-2.7-9.38-3.54-13.95-.95-4.59-1.48-9.07-.99-13.29.73-6.21,6.35-10.65,12.55-9.92,6.21.73,10.65,6.35,9.92,12.55-.12,1.03-.4,2.07-.77,2.99-1.62,3.93-4.26,7.59-7.32,11.14-2.95,3.58-6.13,7.1-9.86,10.48Z"/>
    </g>
    <path class="cls-13" d="m1578.35,837.12c-2.76,0-5.52-.73-7.97-2.17-4.34-2.55-7.19-7.04-7.66-12.05l-30.55-325.25c-.39-4.17.9-8.32,3.58-11.52,2.68-3.21,6.53-5.22,10.7-5.58,98.73-8.56,176.33,49.22,184.6,137.31,8.04,85.66-53.53,177.32-146.41,217.95-2.01.88-4.15,1.31-6.29,1.31Zm-13.38-326.01l26.88,286.14c69.65-38.69,114.2-110,107.96-176.46-6.14-65.41-61.68-109.68-134.6-109.68h-.23Z"/>
    <path class="cls-13" d="m1488.25,856.69c-89.38,0-158.06-56.3-165.75-138.13-8-85.18,50.52-174.05,142.3-216.1,4.62-2.11,9.98-1.87,14.39.68,4.4,2.54,7.3,7.06,7.78,12.12l30.41,323.82c.4,4.22-.93,8.42-3.67,11.64-2.74,3.23-6.68,5.21-10.9,5.49-4.9.33-9.76.49-14.55.49Zm-30.36-315.33c-67.28,39.17-110.22,109.5-104.14,174.26,6.1,64.92,58.95,108.35,130.81,109.66l-26.67-283.93Z"/>
  </g>
  <g>
    <ellipse class="cls-6" cx="965.96" cy="1248.09" rx="251.62" ry="200.82" transform="translate(-522.9 724.54) rotate(-32.89)"/>
    <g class="cls-4">
      <path class="cls-2" d="m1002.65,1446.22c-123.42,31.98-231.72-29.99-241.9-138.4-10.18-108.42,81.61-222.23,205.03-254.21,90.76-23.52,173.29,3.81,214.69,63.02-41.36-69.58-132.9-102.92-234.06-76.71-130.87,33.91-228.22,154.6-217.42,269.57,10.8,114.97,125.65,180.68,256.52,146.77,34.55-8.95,66.72-23.99,95.22-43.34-23.87,14.6-50.15,26.06-78.07,33.3Z"/>
    </g>
    <path class="cls-13" d="m985.63,1087.17l28.57,304.25c79.9-34.95,135.31-113.64,128.22-189.05-7.08-75.41-74.28-122.33-156.8-115.2Z"/>
    <path class="cls-13" d="m914.1,1106.39c-77.95,35.72-131.58,113.16-124.61,187.43,6.97,74.27,72.26,120.89,153.06,115.48l-28.45-302.91Z"/>
    <path class="cls-13" d="m914.1,1106.39c-77.95,35.72-131.58,113.16-124.61,187.43,6.97,74.27,72.26,120.89,153.06,115.48l-28.45-302.91Z"/>
    <path class="cls-6" d="m925.05,1207.86c-25.54,11.7-43.11,37.08-40.83,61.41,2.29,24.33,23.68,39.61,50.15,37.84l-9.32-99.25Z"/>
    <path class="cls-6" d="m993.85,1190.03c26.47-1.77,47.86,13.5,50.15,37.84,2.29,24.33-15.29,49.71-40.83,61.41l-9.32-99.25Z"/>
    <path class="cls-8" d="m917.65,1481.31c-47.96,0-92.7-12.98-128.56-38.14-44.04-30.9-71.11-77.84-76.21-132.16-11.49-122.35,91.45-250.98,229.47-286.75,74.03-19.18,147.1-8.7,200.48,28.75,44.04,30.9,71.11,77.84,76.21,132.16h0c11.49,122.35-91.45,250.99-229.47,286.75-24.29,6.29-48.49,9.39-71.92,9.39Zm96.69-434.11c-20.72,0-42.21,2.76-63.87,8.37-123.31,31.96-215.44,145.19-205.37,252.4,4.2,44.74,26.43,83.34,62.58,108.71,45.6,32,108.94,40.71,173.78,23.92,123.31-31.95,215.44-145.18,205.37-252.4h0c-4.2-44.74-26.43-83.34-62.58-108.71-30.37-21.31-68.61-32.29-109.91-32.29Z"/>
    <g>
      <path class="cls-3" d="m909.52,1347.6c2.49,3.64,4.51,7.29,6.33,10.97,1.88,3.67,3.49,7.35,4.17,11.09.91,5.06-2.45,9.91-7.51,10.82-5.06.92-9.91-2.45-10.82-7.5-.14-.75-.17-1.55-.13-2.28.25-3.79,1.45-7.63,2.9-11.48,1.4-3.85,3-7.71,5.06-11.61Z"/>
      <path class="cls-3" d="m867.61,1330.73c.24,4.58.06,8.95-.3,13.23-.31,4.3-.86,8.49-2.24,12.25-1.77,4.82-7.12,7.29-11.95,5.52-4.82-1.78-7.29-7.12-5.52-11.95.25-.68.6-1.35.98-1.93,2.21-3.34,5.27-6.25,8.55-9.05,3.24-2.82,6.65-5.55,10.49-8.07Z"/>
      <path class="cls-3" d="m845.33,1289.02c-1.92,4-4.1,7.6-6.39,11.04-2.26,3.48-4.67,6.75-7.59,9.23-3.92,3.33-9.8,2.85-13.13-1.07-3.33-3.92-2.85-9.79,1.07-13.12.58-.49,1.24-.92,1.89-1.25,3.43-1.7,7.38-2.62,11.47-3.32,4.07-.74,8.24-1.32,12.67-1.51Z"/>
      <path class="cls-3" d="m850.5,1237.11c-3.51,2.18-7,3.89-10.49,5.41-3.49,1.57-6.97,2.87-10.42,3.23-5.12.54-9.71-3.17-10.25-8.3-.54-5.12,3.17-9.71,8.3-10.25.84-.09,1.7-.05,2.5.07,3.43.56,6.83,2.07,10.22,3.84,3.39,1.71,6.78,3.62,10.16,6Z"/>
      <path class="cls-3" d="m881.3,1193.23c-4.03-.56-7.74-1.47-11.32-2.53-3.61-1.03-7.05-2.24-9.86-4.15-4.26-2.9-5.36-8.71-2.46-12.96,2.9-4.26,8.71-5.36,12.97-2.46.71.48,1.36,1.08,1.89,1.71,2.19,2.6,3.74,5.9,5.12,9.4,1.42,3.45,2.7,7.05,3.66,11Z"/>
    </g>
    <g>
      <path class="cls-3" d="m1058.27,1298.05c3.55,2.34,6.68,4.88,9.62,7.5,3,2.59,5.75,5.29,7.65,8.38,2.7,4.39,1.33,10.13-3.06,12.82-4.38,2.7-10.12,1.33-12.82-3.06-.42-.68-.75-1.45-.98-2.18-1.05-3.47-1.24-7.32-1.19-11.28,0-3.94.18-7.96.78-12.17Z"/>
      <path class="cls-3" d="m1083.98,1251.5c4.02-.48,7.82-.55,11.53-.44,3.74.06,7.35.35,10.53,1.47,4.86,1.72,7.4,7.06,5.68,11.91s-7.06,7.4-11.91,5.68c-.82-.29-1.61-.71-2.28-1.19-2.75-1.95-5.07-4.74-7.27-7.76-2.22-2.97-4.36-6.12-6.27-9.68Z"/>
      <path class="cls-3" d="m1083.38,1199.66c2.94-2.97,5.97-5.48,9.05-7.8,3.07-2.37,6.19-4.48,9.51-5.67,4.85-1.74,10.19.78,11.93,5.62,1.74,4.85-.77,10.19-5.62,11.93-.78.28-1.62.45-2.4.52-3.52.28-7.23-.35-11-1.24-3.76-.83-7.56-1.87-11.46-3.36Z"/>
      <path class="cls-3" d="m1056.67,1160.73c1.03-4.35,2.4-8.36,3.92-12.25,1.47-3.92,3.13-7.65,5.47-10.74,3.11-4.1,8.95-4.9,13.04-1.79,4.1,3.11,4.9,8.95,1.79,13.04-.45.6-1,1.15-1.56,1.61-3.01,2.43-6.68,4.21-10.55,5.81-3.83,1.64-7.8,3.13-12.11,4.31Z"/>
      <path class="cls-3" d="m1013.23,1148.36c-1.22-4.38-1.99-8.65-2.57-12.86-.63-4.23-1-8.39-.47-12.31.7-5.09,5.39-8.66,10.48-7.96,5.1.7,8.66,5.39,7.96,10.48-.1.72-.3,1.46-.55,2.11-1.44,3.69-3.78,7.15-6.38,10.54-2.55,3.4-5.29,6.76-8.48,10Z"/>
    </g>
    <path class="cls-13" d="m1014.2,1407.59c-2.85,0-5.69-.75-8.21-2.24-4.47-2.64-7.41-7.26-7.9-12.43l-28.57-304.25c-.4-4.29.92-8.57,3.69-11.88,2.76-3.31,6.73-5.38,11.03-5.75,93.13-8.07,166.48,46.54,174.29,129.8,7.58,80.75-50.39,167.12-137.84,205.39-2.07.91-4.28,1.36-6.48,1.36Zm-10.87-304.96l24.77,263.74c63.5-36.15,103.95-101.54,98.22-162.5-5.63-59.94-56.27-100.65-122.99-101.24Z"/>
    <path class="cls-13" d="m929.9,1425.89c-84.39,0-149.26-53.22-156.52-130.57-7.54-80.3,47.55-164.04,133.97-203.65,4.76-2.18,10.29-1.92,14.83.7,4.54,2.62,7.52,7.28,8.02,12.5l28.45,302.91c.41,4.35-.96,8.67-3.79,12-2.83,3.33-6.88,5.37-11.24,5.66-4.63.31-9.21.46-13.73.46Zm-29.65-293.97c-61.28,36.57-100.23,101.02-94.65,160.38,5.58,59.41,53.65,99.33,119.22,101.19l-24.57-261.57Z"/>
  </g>
  <g>
    <g>
      <path class="cls-11" d="m634.5,1215.25c-170.92,7.02-174.29,93.69-120.01,227.38,102.66-42.87,170.61-118.24,120.01-227.38Z"/>
      <path class="cls-9" d="m510.35,1472.54c-2.16,0-4.33-.43-6.36-1.3-4.21-1.8-7.46-5.3-8.95-9.64-26.1-76.32-45.22-154.14-8.77-206.28,25.35-36.27,73.73-54.67,147.89-56.25,6.16-.26,11.98,3.32,14.79,8.89,21.6,42.85,25.33,85.27,11.1,126.1-19.01,54.53-69.76,103.18-142.91,136.99-2.15,1-4.47,1.49-6.79,1.49Zm114.03-240.78c-57.08,2.61-93.64,16.42-111.59,42.09-25.74,36.83-12.34,99.77,7.06,159.81,55.63-29.14,95.16-68.7,109.65-110.25,10.24-29.37,8.51-60.15-5.11-91.65Z"/>
      <path class="cls-5" d="m639.65,1230.58c-11.12,5.14-21.79,11.62-31.95,19.97-10.08,8.33-19.95,17.92-28.84,28.8-17.82,21.8-32.69,47.1-44.97,74.76-.05-15.22,2.36-30.49,6.19-45.45,3.95-14.94,9.45-29.65,16.83-43.69,7.38-14,16.5-27.63,28.54-39.2,11.92-11.5,26.77-21.46,43.91-25.84,8.68-2.22,17.51,3.01,19.73,11.68,1.97,7.7-1.93,15.53-8.9,18.74l-.53.24Z"/>
    </g>
    <g>
      <path class="cls-11" d="m943.88,748.84c151.31-79.8,197.76-6.56,218,136.31-110.3,14.51-206.92-16.52-218-136.31Z"/>
      <path class="cls-9" d="m1136.89,912.83c-64.17,0-118.47-16.75-155.4-48.42-32.82-28.15-50.9-66.71-53.75-114.6-.37-6.22,2.86-12.1,8.32-15.12,64.91-35.89,115.98-44.29,156.13-25.66,57.71,26.77,80.27,103.66,96.05,182.77.9,4.49-.15,9.16-2.89,12.83-2.74,3.68-6.9,6.02-11.46,6.45-12.64,1.18-24.99,1.77-36.98,1.77Zm-175.96-154.79c4.05,34.08,18.02,61.56,41.62,81.81,33.4,28.65,87.51,42.97,150.2,40.24-13.4-61.66-33.43-122.82-74.19-141.72-28.43-13.2-66.97-6.76-117.63,19.67Z"/>
      <path class="cls-5" d="m940.63,733c17.02-4.81,34.86-3.67,50.95.29,16.22,3.96,30.95,11.16,44.37,19.56,13.44,8.44,25.58,18.39,36.5,29.33,10.84,11.02,20.59,23.01,28.19,36.19-24.52-17.74-50.08-32.15-76.44-42.05-13.14-4.94-26.5-8.27-39.4-10.41-12.97-2.11-25.46-2.35-37.65-1.21l-.58.05c-8.92.84-16.82-5.72-17.66-14.63-.74-7.92,4.34-15.03,11.73-17.11Z"/>
    </g>
    <g>
      <path class="cls-11" d="m1616.58,1286.47c-117.2-108.66-176.86-53.83-229.74,70.19,96.02,39.81,190.72,35.22,229.74-70.19Z"/>
      <path class="cls-9" d="m1476.18,1398.03c-32.89,0-68.97-6.98-106.44-20.9-4.01-1.49-7.2-4.61-8.78-8.59-1.58-3.97-1.4-8.44.5-12.28,33.41-67.56,72.39-131.47,130.95-141.65,40.74-7.12,84.79,12.87,134.67,60.98,4.19,4.04,5.69,10.14,3.85,15.66-14.18,42.53-39.84,72.94-76.27,90.39-22.83,10.93-49.4,16.39-78.46,16.39Zm-79.88-43.73c55.94,17.69,108.2,17.83,145.28.08,26.2-12.55,45.47-33.96,57.38-63.74-39.31-36.12-72.52-51.25-101.38-46.25-41.36,7.19-74.25,57.52-101.28,109.91Z"/>
      <path class="cls-5" d="m1609.8,1299.98c-10.73-3.99-22.05-6.79-34.27-8.03-12.16-1.2-25.02-1.42-38.08-.15-26.18,2.54-52.74,9.35-79.16,19.42,10.06-10.05,21.76-18.52,34.21-25.83,12.5-7.22,25.87-13.26,40.04-17.62,14.14-4.33,29.18-7.26,44.77-6.9,15.47.33,31.85,3.61,46.04,12.08,7.18,4.29,9.53,13.59,5.25,20.78-3.81,6.38-11.56,8.95-18.28,6.44l-.52-.19Z"/>
    </g>
    <g>
      <path class="cls-11" d="m279.86,1560.84c9.25.53,17.96,1.32,26.93,2.32,8.92.99,17.85,2.25,26.86,3.85,9.01,1.58,18.07,3.5,27.37,6.22,9.33,2.83,18.74,5.83,29.21,12.28l1.19.73c10.58,6.51,13.88,20.36,7.38,30.94-6.51,10.58-20.36,13.88-30.94,7.38-1.2-.74-2.4-1.66-3.41-2.57-3.79-3.47-10.53-7.19-17.4-10.34-6.96-3.23-14.58-6.09-22.38-8.66-7.79-2.6-15.81-4.97-23.92-7.09-8.06-2.12-16.45-4.13-24.38-5.77l-.35-.07c-7.99-1.65-13.12-9.47-11.47-17.45,1.5-7.27,8.11-12.17,15.31-11.75Z"/>
      <g class="cls-7">
        <path class="cls-8" d="m279.86,1560.84c9.25.53,17.96,1.32,26.93,2.32,8.92.99,17.85,2.25,26.86,3.85,9.01,1.58,18.07,3.5,27.37,6.22,9.33,2.83,18.74,5.83,29.21,12.28l1.19.73c10.58,6.51,13.88,20.36,7.38,30.94-6.51,10.58-20.36,13.88-30.94,7.38-1.2-.74-2.4-1.66-3.41-2.57-3.79-3.47-10.53-7.19-17.4-10.34-6.96-3.23-14.58-6.09-22.38-8.66-7.79-2.6-15.81-4.97-23.92-7.09-8.06-2.12-16.45-4.13-24.38-5.77l-.35-.07c-7.99-1.65-13.12-9.47-11.47-17.45,1.5-7.27,8.11-12.17,15.31-11.75Z"/>
      </g>
      <path class="cls-9" d="m379.59,1640.77c-6.32,0-12.71-1.69-18.47-5.23-1.83-1.13-3.65-2.5-5.3-3.99-.93-.84-4.48-3.76-14.14-8.19-6.04-2.8-12.9-5.45-21.04-8.13-7.4-2.47-15.17-4.78-23.15-6.87-8.13-2.14-16.32-4.08-23.73-5.61-7.58-1.57-13.81-5.8-17.86-11.97-4.06-6.18-5.47-13.56-3.97-20.8,2.76-13.34,15.06-22.81,28.69-22.02h0c8.96.52,17.74,1.27,27.61,2.38,9.43,1.04,18.75,2.38,27.69,3.96,10.85,1.9,19.99,3.98,28.73,6.54,11,3.34,20.94,6.65,32.34,13.67l1.2.74c16.61,10.21,21.82,32.05,11.6,48.67-6.68,10.85-18.31,16.84-30.21,16.85Zm-100.57-67.06c-.76,0-1.63.51-1.83,1.49-.13.63.08,1.11.27,1.41.2.29.56.67,1.18.8,8.2,1.7,16.87,3.75,25.41,6,8.51,2.23,16.83,4.69,24.72,7.32,9.04,2.98,16.82,6,23.72,9.19,9.3,4.27,16.28,8.5,20.69,12.53.42.38.99.82,1.47,1.11,4.48,2.75,10.4,1.34,13.17-3.16,2.77-4.5,1.36-10.42-3.15-13.19l-1.2-.74c-8.8-5.41-16.74-8.04-26.2-10.92-7.67-2.25-15.92-4.12-25.84-5.85-8.54-1.52-17.05-2.74-26.05-3.74-9.42-1.05-17.77-1.77-26.26-2.26-.02,0-.07,0-.1,0Z"/>
      <g>
        <path class="cls-11" d="m300.4,1578.37c-52.13-190.61-271.22-35.18-271.22-35.18,0,0,172.18,206.18,271.22,35.18Z"/>
        <g class="cls-4">
          <path class="cls-2" d="m299.23,1580.3c.39-.66.78-1.26,1.17-1.93-52.13-190.61-271.22-35.18-271.22-35.18,0,0,5.86,7.01,16.02,17.37,41.11-26.11,199.7-115.56,254.03,19.74Z"/>
        </g>
        <path class="cls-9" d="m197.31,1659.09c-94.77,0-189.75-102.72-193.93-107.29-2.55-2.79-3.74-6.55-3.28-10.29.47-3.74,2.55-7.09,5.7-9.17,5.49-3.62,135.62-88.4,228.87-53.29,38.42,14.47,64.72,46.75,78.17,95.93.91,3.33.45,6.88-1.28,9.87-25.68,44.35-59.58,69.09-100.75,73.54-4.49.49-9,.72-13.5.72Zm-163.75-113.44c28.28,27.37,105.45,94.51,174.52,87.07,31.13-3.38,57.47-22.27,78.37-56.16-11.47-37.79-31.93-62.46-60.84-73.37-65.05-24.52-157.62,22.61-192.05,42.46Z"/>
        <g>
          <line class="cls-11" x1="300.4" y1="1578.37" x2="153.34" y2="1559.3"/>
          <path class="cls-5" d="m298.74,1591.16c-12.39-.56-24.62-2.35-36.81-4.38-12.2-2.02-24.3-4.79-36.4-7.56-24.19-5.66-48.31-11.85-72.19-19.91,25.14-1.71,50.05-1.54,74.88-.84,12.41.41,24.82.82,37.13,1.98,12.31,1.14,24.59,2.52,36.72,5.15,6.99,1.51,11.43,8.4,9.91,15.39-1.35,6.26-7.04,10.48-13.23,10.19Z"/>
        </g>
      </g>
      <path class="cls-9" d="m192.8,1658.98c16.56-14.66,33.28-29.17,50.17-43.54,16.92-14.35,33.92-28.55,51.75-42.33,5.66-4.38,13.8-3.33,18.18,2.33,4.38,5.66,3.33,13.8-2.33,18.18-.66.51-1.36.94-2.07,1.31l-.1.05c-19.43,9.7-38.81,20.31-58.07,31.05-19.26,10.77-38.44,21.76-57.52,32.94Z"/>
      <g>
        <path class="cls-11" d="m300.99,1580.85s-111.18,6.72-136.65,199.2c0,0,227.08-72.27,136.65-199.2Z"/>
        <g class="cls-4">
          <path class="cls-2" d="m196.38,1762.18c20.88-157.81,110.78-166.03,113.97-166.27-2.65-4.93-5.72-9.94-9.36-15.06,0,0-111.18,6.72-136.65,199.2,0,0,48.91-15.58,92.3-44.95-30.97,17.75-60.25,27.08-60.25,27.08Z"/>
        </g>
        <path class="cls-9" d="m164.34,1792.95c-2.99,0-5.93-1.04-8.28-3.01-3.38-2.83-5.09-7.2-4.5-11.58,26.56-200.71,143.69-210.08,148.66-210.38,4.43-.28,8.7,1.77,11.28,5.39,22.88,32.12,29.24,64.14,18.89,95.18-26.62,79.85-156.62,122.04-162.14,123.8-1.28.41-2.6.61-3.91.61Zm130.54-198.08c-22.25,5.03-90.45,31.27-114.44,165.45,35.81-14.44,108.64-49.37,125.48-99.97,7.02-21.09,3.42-42.58-11.04-65.48Z"/>
        <path class="cls-9" d="m238.21,1664.69c8.17-15.58,16.58-31.06,25.27-46.45,8.74-15.4,17.61-30.65,27.77-45.82,4-5.96,12.07-7.56,18.03-3.56,5.96,4,7.56,12.07,3.56,18.03-.6.89-1.35,1.73-2.1,2.42-12.57,11.35-24.84,23.93-36.9,36.59-12.06,12.71-23.94,25.65-35.64,38.78Z"/>
      </g>
      <g>
        <path class="cls-11" d="m300.07,1580.29s-103.66-40.76-68.39-231.69c0,0,193.62,138.93,68.39,231.69Z"/>
        <g class="cls-4">
          <path class="cls-2" d="m261.8,1373.4c-17.09-15.45-30.12-24.8-30.12-24.8-35.27,190.93,68.39,231.69,68.39,231.69,1.52-1.13,2.96-2.27,4.39-3.41-20.67-15.23-74.28-69.15-42.66-203.48Z"/>
        </g>
        <path class="cls-9" d="m300.07,1593.19c-1.59,0-3.19-.3-4.72-.9-4.64-1.82-113.13-46.93-76.35-246.03.8-4.34,3.77-7.97,7.86-9.62,4.09-1.65,8.75-1.09,12.34,1.48,4.71,3.38,115.3,83.69,115.93,167.86.25,32.71-15.69,61.2-47.39,84.67-2.25,1.67-4.95,2.53-7.68,2.53Zm-59.17-220.85c-18.66,135.03,38.09,181.06,57.7,192.72,20.83-17.31,30.9-36.63,30.74-58.86-.38-53.34-58.85-109.06-88.44-133.87Z"/>
        <path class="cls-9" d="m266.28,1481.15c7.07,16.1,14.37,32.09,21.91,47.9,7.55,15.76,15.34,31.52,23.78,46.2,3.59,6.22,1.46,14.17-4.76,17.75-6.22,3.59-14.17,1.46-17.76-4.76-.53-.92-.96-1.97-1.25-2.95-4.98-17.57-8.7-34.81-12.25-52.16-3.51-17.32-6.72-34.64-9.67-51.99Z"/>
      </g>
    </g>
  </g>
  <path class="cls-8" d="m103.62,2101.75c.48.81.79,1.21,1.34,1.62.54.41,1.44.88,2.91,1.23,2.9.75,7.57.75,12.49-.01,10-1.51,21.03-5.32,31.76-9.82,21.61-9.15,42.86-21.16,63.62-33.88,41.48-25.73,81.56-54.6,120.69-84.63,39.1-30.11,77.25-61.6,114.51-94.11,9.31-8.13,18.56-16.33,27.75-24.6,9.27-8.26,18.09-16.64,27.73-24.99,4.75-4.15,9.44-8.38,14.24-12.47l14.71-11.88,7.37-5.92,7.58-5.62,15.15-11.25c82.23-58.1,173.36-101.45,267.3-134.75,46.96-16.8,94.73-31.16,143.03-43.21,48.26-12.15,97.06-22.19,146.26-29.18-97.39,19.6-192.75,48.17-285.02,83.8-46.1,17.95-91.15,38.4-134.92,61.12-43.65,22.91-85.68,48.8-125.07,78.03l-14.5,11.29-7.25,5.64-7.02,5.91-14.01,11.84c-4.57,4.06-9,8.26-13.51,12.38-8.97,8.1-17.95,17.05-27.02,25.54-9.07,8.57-18.2,17.07-27.39,25.5-36.79,33.71-74.51,66.41-113.37,97.86-38.92,31.38-78.75,61.78-121.34,89-21.35,13.55-43.23,26.51-67.2,37.15-12.08,5.22-24.55,10.05-39.1,12.58-7.3,1.15-15.28,1.88-24.54-.08-4.58-1-9.56-2.86-14.13-6-4.59-3.09-8.48-7.46-11.11-12.02-4.46-7.74-1.8-17.63,5.94-22.09,7.7-4.44,17.53-1.83,22.03,5.82l.12.2Z"/>
  <g>
    <g class="cls-7">
      <ellipse class="cls-8" cx="1978.41" cy="1339.33" rx="25.83" ry="18.87" transform="translate(-272.7 539.07) rotate(-14.53)"/>
    </g>
    <g class="cls-7">
      <ellipse class="cls-8" cx="1859.45" cy="1273.33" rx="41.98" ry="30.68" transform="translate(-259.95 507.13) rotate(-14.53)"/>
    </g>
    <g class="cls-7">
      <ellipse class="cls-8" cx="1591.07" cy="1093.95" rx="32.74" ry="25.72" transform="translate(-283.86 632.57) rotate(-20.69)"/>
    </g>
    <g class="cls-7">
      <ellipse class="cls-8" cx="1901.31" cy="780.57" rx="22.63" ry="17.78" transform="translate(-153.16 721.95) rotate(-20.69)"/>
    </g>
    <g class="cls-7">
      <ellipse class="cls-8" cx="1942.16" cy="1015.57" rx="25.71" ry="20.2" transform="translate(-233.54 751.54) rotate(-20.69)"/>
    </g>
    <g class="cls-7">
      <path class="cls-8" d="m1697.77,934.58c3.25,8.61-3,18.94-13.95,23.08-10.96,4.14-22.47.51-25.72-8.1-3.25-8.61,3-18.94,13.95-23.08,10.96-4.14,22.47-.51,25.72,8.1Z"/>
    </g>
    <g class="cls-7">
      <ellipse class="cls-8" cx="1316.81" cy="1234.03" rx="23.36" ry="18.35" transform="translate(-473.05 1003.33) rotate(-35.8)"/>
    </g>
    <g class="cls-7">
      <ellipse class="cls-8" cx="1368.93" cy="1010.71" rx="23.17" ry="18.2" transform="translate(-332.58 991.63) rotate(-35.8)"/>
    </g>
    <g class="cls-7">
      <ellipse class="cls-8" cx="659.63" cy="1600.66" rx="30.76" ry="24.17" transform="translate(-811.64 688.2) rotate(-35.8)"/>
    </g>
    <g class="cls-7">
      <ellipse class="cls-8" cx="674.63" cy="1437.18" rx="26.01" ry="20.43" transform="translate(-713.18 666.09) rotate(-35.8)"/>
    </g>
    <g class="cls-7">
      <ellipse class="cls-8" cx="425.96" cy="1757.23" rx="17.1" ry="13.44" transform="translate(-947.35 581.09) rotate(-35.8)"/>
    </g>
    <g class="cls-7">
      <ellipse class="cls-8" cx="680.34" cy="1138.48" rx="26.01" ry="20.43" transform="translate(-537.39 613) rotate(-35.8)"/>
    </g>
    <g class="cls-7">
      <ellipse class="cls-8" cx="907.55" cy="975.07" rx="33.97" ry="26.69" transform="translate(-398.89 715.03) rotate(-35.8)"/>
    </g>
  </g>
  <g>
    <g>
      <g>
        <path class="cls-1" d="m2203.87,1386.93c-32.57,185.32,390.52,215.33,390.52,215.33,0,0,267.97-627.24-164.38-1162.59C1997.68-95.66,1409.56-14.5,1345.49,111.92c-64.08,126.42,62.87,184.24,62.87,184.24,0,0,972.17,85.62,795.51,1090.76Z"/>
        <g class="cls-4">
          <path class="cls-2" d="m2430.02,439.68C1997.68-95.66,1409.56-14.5,1345.49,111.92c-57.08,112.62,37.43,170.8,58.75,182.16-25.67-27.69-47.01-73.16-14.08-138.12,14.01-27.63,54.95-52.93,114.61-69.01-13.76,8.78-21.45,18.84-19.79,28.12,3.35,18.75,43.41,27.28,89.48,19.05,46.07-8.23,80.7-30.1,77.35-48.85-1.2-6.73-7.19-12.11-16.43-15.91,209.88-5.22,514.18,83.17,763.03,391.3,401.93,497.68,152.81,1080.81,152.81,1080.81,0,0-279.05-19.8-348.96-129.01,8.57,162.59,392.15,189.81,392.15,189.81,0,0,267.97-627.24-164.38-1162.59Z"/>
        </g>
        <g class="cls-7">
          <path class="cls-8" d="m2594.4,1602.27s36.5-85.53,60.82-220.29c-44.26-42.08-111.48-76.81-182.13-105.22-62.38-25.07-101.07-87.72-95.27-154.7,14.98-172.91,14.24-390.74-135.63-576.31-338.03-418.56-796.13-361.73-857.42-263.95,13.27,9.65,23.59,14.36,23.59,14.36,0,0,972.17,85.62,795.51,1090.76-32.57,185.32,390.52,215.33,390.52,215.33Z"/>
        </g>
        <path class="cls-8" d="m2594.4,1620.75c-.44,0-.87-.01-1.32-.04-11.91-.84-292.65-22-381.73-136.07-23.52-30.12-32.17-64.07-25.69-100.9,52.5-298.74,7.17-544.07-134.75-729.18-229.9-299.89-640.07-339.6-644.19-339.97-2.08-.19-4.13-.73-6.03-1.59-2.57-1.17-63.25-29.39-84.54-90.13-12.92-36.87-8.6-77,12.83-119.3,25.16-49.63,110.48-87.82,222.67-99.65,245.1-25.84,608.33,71.99,892.74,424.15,227.04,281.13,260.39,587.35,248.39,794.73-12.99,224.38-78.61,380.21-81.4,386.74-2.92,6.84-9.64,11.22-16.99,11.22Zm-390.53-233.82l18.21,3.2c-4.65,26.45,1.38,49.92,18.42,71.75,68.93,88.27,285.53,115.16,341.77,120.74,15.52-41.02,63.28-180.22,73.69-363.3,11.4-200.51-21.05-496.52-240.32-768.03C2140.54,110.66,1790.93,15.85,1555.55,40.68c-111.83,11.8-177.8,48.48-193.57,79.6-16.66,32.86-20.36,63.16-11.02,90.08,13.81,39.79,52.42,62.36,62.62,67.74,19.93,2.08,117.36,14,240.32,57.85,125.09,44.61,300.56,132.14,426.17,295.83,148.63,193.71,196.41,448.85,142.01,758.34l-18.21-3.2Z"/>
      </g>
      <path class="cls-12" d="m2594.4,1602.27s-82.78,93.47-246.32,42.75c-163.55-50.73-201.87-163.77-144.2-258.08,57.67-94.31,507.78,24.6,390.52,215.33Z"/>
      <g class="cls-7">
        <path class="cls-8" d="m2594.4,1602.27s-82.78,93.47-246.32,42.75c-163.55-50.73-201.87-163.77-144.2-258.08,57.67-94.31,507.78,24.6,390.52,215.33Z"/>
      </g>
      <path class="cls-8" d="m2442.33,1678.73c-29.37,0-62.61-4.55-99.73-16.06-113.16-35.1-156.22-93.64-172.4-136.57-17.98-47.68-11.62-100.53,17.91-148.81,22.33-36.52,77.97-42.83,120.76-41.74,111.71,2.91,261.25,59.49,308.05,145.82,22.54,41.57,20.2,86.72-6.76,130.58-.56.91-1.2,1.77-1.91,2.57-2.91,3.29-58.43,64.2-165.91,64.2Zm-142.25-306.32c-41.28,0-71.07,8.87-80.43,24.17-23.78,38.89-28.92,79.17-14.85,116.47,18.77,49.78,71.6,90.37,148.76,114.3,141.64,43.93,216.16-26.15,226.04-36.32,19.31-32.28,20.89-62.4,4.82-92.04-39.24-72.38-174.65-123.83-276.51-126.48-2.65-.07-5.26-.1-7.82-.1Zm294.32,229.86h.05-.05Z"/>
    </g>
    <g>
      <path class="cls-14" d="m1638.22,215.9c-3.85-8.22-5.21-17.25-5.23-26.22.03-9,1.74-18.05,4.95-26.65,3.05-8.65,8.16-16.71,14.75-23.19,6.47-6.58,14.95-11.17,23.99-12.96-4.33,8.46-9.03,14.76-12.55,21.89-3.78,6.82-7.31,13.51-10.34,20.63-3.07,7.08-5.76,14.45-8.26,22.16-2.47,7.74-4.79,15.69-7.31,24.33Z"/>
      <path class="cls-14" d="m1687.24,248.27c-2.64-12.01-2.03-24.42-.07-36.56,2.12-12.14,6.28-24.02,12.22-35.05,5.75-11.13,13.94-21.13,23.7-29.05,2.52-1.9,4.95-3.87,7.57-5.57,2.74-1.56,5.5-3.05,8.29-4.43,2.7-1.52,5.72-2.47,8.68-3.4,3.01-.86,5.97-1.7,9.01-2.25-8.28,9.5-16.63,16.94-23.37,26-7.02,8.62-13.47,17.48-18.99,27.09-5.6,9.54-10.51,19.62-14.92,30.17-4.46,10.55-8.27,21.49-12.11,33.06Z"/>
    </g>
    <g>
      <path class="cls-14" d="m2379.14,1037.03c10.22-8.22,22.33-13.63,34.84-17.65,12.58-3.86,25.88-5.71,39.25-5.48,13.37,0,26.86,2.83,39.18,8.11,3.04,1.44,6.11,2.75,9.03,4.38,2.84,1.81,5.62,3.66,8.32,5.59,2.78,1.78,5.2,4.14,7.57,6.46,2.33,2.39,4.62,4.74,6.68,7.3-12.95-3.44-24.13-7.86-36.09-9.91-11.68-2.52-23.35-4.33-35.27-4.83-11.89-.61-23.94-.26-36.16.84-12.25,1.06-24.53,2.96-37.33,5.21Z"/>
      <path class="cls-14" d="m2358.61,1122.52c16-8.28,33.69-12.94,51.62-15.58,17.98-2.6,36.46-2.45,54.63.31,4.52.87,9.11,1.35,13.56,2.56,4.44,1.25,8.91,2.42,13.31,3.76,4.4,1.36,8.61,3.34,12.87,5.1l6.34,2.74,6.02,3.42c3.95,2.39,7.96,4.62,11.74,7.21,3.65,2.82,7.15,5.81,10.68,8.68,1.75,1.46,3.53,2.85,5.1,4.52l4.6,5.08c2.97,3.47,5.9,6.89,8.58,10.49-16.21-8.32-30.73-17.28-46.95-22.87l-5.85-2.45-6.07-1.9c-4.06-1.2-7.96-2.8-12.05-3.85-4.12-.96-8.18-2.09-12.27-3.13-4.06-1.12-8.29-1.63-12.43-2.49-16.66-2.97-33.7-4.38-50.96-4.59-17.28-.09-34.69.95-52.48,3.01Z"/>
    </g>
  </g>
  <g>
    <path class="cls-11" d="m1830.27,974.08c131.04-69.11,171.28-5.68,188.8,118.06-95.53,12.57-179.21-14.3-188.8-118.06Z"/>
    <path class="cls-9" d="m1997.42,1116.1c-55.57,0-102.59-14.5-134.57-41.93-28.43-24.38-44.09-57.77-46.56-99.26-.32-5.39,2.48-10.48,7.21-13.1,56.22-31.09,100.44-38.36,135.22-22.23,49.98,23.18,69.52,89.78,83.19,158.29.78,3.89-.13,7.92-2.5,11.11s-5.98,5.21-9.93,5.58c-10.95,1.03-21.65,1.53-32.05,1.53Zm-152.38-134.06c3.5,29.52,15.61,53.32,36.05,70.85,28.93,24.81,75.75,37.21,130.09,34.85-11.61-53.41-28.96-106.37-64.26-122.74-24.61-11.43-58-5.85-101.88,17.04Z"/>
    <path class="cls-5" d="m1827.46,960.35c14.74-4.17,30.19-3.17,44.12.25,14.05,3.43,26.81,9.67,38.43,16.94,11.64,7.31,22.15,15.93,31.61,25.4,9.38,9.54,17.83,19.93,24.42,31.34-21.23-15.37-43.37-27.84-66.2-36.41-11.38-4.28-22.95-7.17-34.13-9.02-11.24-1.83-22.05-2.04-32.61-1.04l-.5.05c-7.72.72-14.57-4.95-15.29-12.68-.64-6.86,3.76-13.02,10.16-14.82Z"/>
  </g>
</svg>